# xmcd
#
# Track frame offsets:
#	183
#	11708
#	22260
#	32933
#	45228
#	56348
#	67063
#	77108
#	88250
#	99698
#	115468
#	128178
#	142480
#	154383
#	166568
#	179488
#	192190
#	204328
#	214673
#	230363
#	242945
#	253053
#	265835
#	277383
#	289590
#
# Disc length: 4013 seconds
#
# Revision: 4
# Processed by: cddbd v1.5.2PL0 Copyright (c) Steve Scherf et al.
# Submitted via: audiograbber 1.83.01
#
DISCID=810fab19
DTITLE=Various Artist - Country Girls
DYEAR=1995
DGENRE=Country
TTITLE0=Skeeter Davis - Gonna get along without you now  
TTITLE1=Barbara Fairchild - Kid stuff 
TTITLE2=Connie Smith - Ain't had no lovin'  
TTITLE3=Sammi Smith - Send me the pillow you dream on  
TTITLE4=Patsy Cline - Stop the World and let me off
TTITLE5=Billie Jo Spears - I'm so lonesome I could cry
TTITLE6=Kitty Wells - I can't stop loving you  
TTITLE7=Jean Shepard - A Satisfied mind  
TTITLE8=Donna Fargo - Superman  
TTITLE9=Lacy J. Dalton - Takin' it easy  
TTITLE10=Anderson, Lynn - It must be love  
TTITLE11=Margo Smith - It only hurts for a little while  
TTITLE12=Bonnie Guitar - Dark moon  
TTITLE13=Anderson, Lynn - How can I unlove you  
TTITLE14=Jeannie C. Riley - There never was a time  
TTITLE15=Connie Smith - The hurtin's all over 
TTITLE16=Barbara Fairchild - Colour my World 
TTITLE17=Jan Howard - Evil on your mind  
TTITLE18=Lacy J. Dalton - Everbody makes mistakes 
TTITLE19=Wanda Jackson - Crazy  
TTITLE20=Susan Raye - Pitty pitty patter 
TTITLE21=Jeannie Seely - I'll love you more  
TTITLE22=Kitty Wells - Password  
TTITLE23=Billie Jo Spears - Look what they've done to my song ma 
TTITLE24=Patsy Cline - Walkin' after midnight
EXTD=YEAR: 1995
EXTT0=
EXTT1=
EXTT2=
EXTT3=
EXTT4=
EXTT5=
EXTT6=
EXTT7=
EXTT8=
EXTT9=
EXTT10=
EXTT11=
EXTT12=
EXTT13=
EXTT14=
EXTT15=
EXTT16=
EXTT17=
EXTT18=
EXTT19=
EXTT20=
EXTT21=
EXTT22=
EXTT23=
EXTT24=
PLAYORDER=
